<?xml version="1.0" encoding="UTF-8"?>
<!DOCTYPE svg PUBLIC "-//W3C//DTD SVG 1.1//EN" "http://www.w3.org/Graphics/SVG/1.1/DTD/svg11.dtd">
<!-- Creator: CorelDRAW X5 -->
<svg xmlns="http://www.w3.org/2000/svg" xml:space="preserve" width="210mm" height="122.81mm" style="shape-rendering:geometricPrecision; text-rendering:geometricPrecision; image-rendering:optimizeQuality; fill-rule:evenodd; clip-rule:evenodd"
viewBox="0 0 21000 12281"
 xmlns:xlink="http://www.w3.org/1999/xlink">
 <defs>
  <style type="text/css">
   <![CDATA[
    .fil0 {fill:#332C2B}
   ]]>
  </style>
 </defs>
 <g id="Layer_x0020_1">
  <metadata id="CorelCorpID_0Corel-Layer"/>
  <path class="fil0" d="M1153 0l18686 0c223,0 405,183 405,405l0 1789 756 0 0 1081 -756 0 0 5591 756 0 0 1137 -756 0 0 1872c0,223 -183,405 -405,405l-18686 0c-223,0 -405,-182 -405,-405l0 -1801 -747 0 0 -1137 747 0 0 -5501 -747 0 0 -1231 747 0 0 -1801c0,-223 182,-405 405,-405zm5287 6225l0 -1408 0 -1873c0,-358 -293,-650 -650,-650 -805,0 -914,0 -1719,0l-2 0 -651 0c0,841 0,1682 1,2524l0 0 0 834 -201 201 0 374 0 374 200 200 0 105 1 0c0,1014 1,2029 1,3043l1221 0 0 -3043 1148 0c358,0 650,-293 650,-650l0 -29zm-1798 -444l0 -964 0 -1400 577 0 0 1400 0 964 -577 0zm5789 -3370l0 6886c0,358 -293,650 -650,650l-914 0 -114 0 -914 0c-358,0 -650,-293 -650,-650l0 -6886 1221 0 0 6412 801 0 0 -6412 1221 0zm2841 -127l140 0c358,0 650,293 650,650l0 2757 -264 288 345 343 0 2974c0,358 -293,650 -650,650l-1630 0c-23,0 -47,-1 -70,-4l-584 0 0 -3424 -215 -215 0 -374 0 -374 215 -215 0 -3058 2013 0c17,0 33,0 50,0zm-860 1162l471 0 0 1895 -471 0 0 -1895zm0 3119l522 0 0 2270 -522 0 0 -2270zm3106 -4280l1724 0c358,0 650,293 650,650l0 1101c6,184 21,190 -142,189l-707 0c-224,4 -192,1 -195,-214l0 -545 -726 0 0 5415 640 0 0 -2536 -110 0c-124,0 -122,20 -122,-105l0 -725c0,-142 -10,-125 132,-125 367,1 728,3 1094,4 148,0 135,-15 135,133l0 3772c0,358 -293,650 -650,650l-1724 0c-358,0 -650,-293 -650,-650l0 -6363c0,-358 293,-650 650,-650zm-13578 -1143l17113 0 0 10001 -17113 0 0 -10001z"/>
 </g>
</svg>
